<svg xmlns="http://www.w3.org/2000/svg" viewBox="0 0 38 48">
  <g fill="none" fill-rule="evenodd" stroke-linecap="round" stroke-linejoin="round" stroke-width="1.5" transform="translate(1 1)">
    <path stroke="#116149" d="M.393162393.395128205L.393162393 2.36094017M.393162393 12.19L.393162393 14.155812"/>
    <polyline stroke="#116149" points=".393 6.293 .393 8.258 2.359 8.258"/>
    <path stroke="#116149" d="M.393162393 18.0874359L.393162393 20.0532479M.393162393 23.9848718L.393162393 25.9506838M.393162393 29.8823077L.393162393 31.8481197"/>
    <polyline stroke="#116149" points=".393 35.78 .393 37.746 2.359 37.746"/>
    <path stroke="#116149" d="M6.29059829 8.25837607L8.25641026 8.25837607M12.1880342 8.25837607L14.1538462 8.25837607M18.0854701 8.25837607L20.0512821 8.25837607M6.29059829 37.7455556L8.25641026 37.7455556M12.1880342 37.7455556L14.1538462 37.7455556M18.0854701 37.7455556L20.0512821 37.7455556"/>
    <polyline stroke="#116149" points="29.88 .395 29.88 6.293 35.778 6.293"/>
    <polyline stroke="#116149" points="29.88 25.951 29.88 31.848 35.778 31.848"/>
    <polygon stroke="#15CC62" points="35.778 20.053 20.051 20.053 20.051 .395 29.88 .395 35.778 6.293"/>
    <polygon stroke="#15CC62" points="35.778 45.609 20.051 45.609 20.051 25.951 29.88 25.951 35.778 31.848"/>
  </g>
</svg>
