<svg xmlns="http://www.w3.org/2000/svg" viewBox="0 0 38 48">
  <g fill="none" fill-rule="evenodd" stroke-linecap="round" stroke-linejoin="round" stroke-width="2" transform="translate(1 1)">
    <polyline stroke="#116149" points="30 .002 30 6.002 36 6.002"/>
    <polyline stroke="#116149" points="30 26.002 30 32.002 36 32.002"/>
    <path stroke="#116149" d="M0 .002L0 2.002M0 12.002L0 14.002"/>
    <polyline stroke="#116149" points="0 6.002 0 8.002 2 8.002"/>
    <path stroke="#116149" d="M0 18.002L0 20.002M0 24.002L0 26.002M0 30.002L0 32.002"/>
    <polyline stroke="#116149" points="0 36.002 0 38.002 2 38.002"/>
    <path stroke="#116149" d="M6 8.002L8 8.002M12 8.002L14 8.002M18 8.002L20 8.002M6 38.002L8 38.002M12 38.002L14 38.002M18 38.002L20 38.002"/>
    <polygon stroke="#16CC62" points="36 20.002 20 20.002 20 .002 30 .002 36 6.002"/>
    <polygon stroke="#16CC62" points="36 46.002 20 46.002 20 26.002 30 26.002 36 32.002"/>
  </g>
</svg>
