<svg xmlns="http://www.w3.org/2000/svg" viewBox="0 0 42 48">
  <g fill="none" fill-rule="evenodd" stroke-linecap="round" stroke-linejoin="round" stroke-width="1.5" transform="translate(1 1)">
    <path stroke="#13AA52" d="M20.0512821.393162393L20.0512821 6.29059829M37.2521368 7.76495726L33.4502564 11.5668376"/>
    <path stroke="#116149" d="M18.0854701.393162393L22.017094.393162393M35.7777778 6.29059829L38.7264957 9.23931624M6.29059829 25.9487179L10.2222222 25.9487179M10.2222222 16.1196581L13.1709402 19.0683761M10.2222222 35.7777778L13.1709402 32.8290598M33.8119658 25.9487179L29.8803419 25.9487179M20.0512821 39.7094017L20.0512821 35.7777778M20.0512821 12.1880342L20.0512821 16.1196581M29.8803419 35.7777778L26.9316239 32.8290598M29.8803419 16.1196581L26.9316239 19.0683761"/>
    <path stroke="#15CC62" d="M39.7094017,25.9487179 C39.7094017,36.8039316 30.9064957,45.6068376 20.0512821,45.6068376 C9.19410256,45.6068376 0.393162393,36.8039316 0.393162393,25.9487179 C0.393162393,15.0935043 9.19410256,6.29059829 20.0512821,6.29059829 C30.9064957,6.29059829 39.7094017,15.0935043 39.7094017,25.9487179 L39.7094017,25.9487179 Z"/>
  </g>
</svg>
