<svg xmlns="http://www.w3.org/2000/svg" viewBox="0 0 48 48">
  <g fill="none" fill-rule="evenodd" stroke-linejoin="round" stroke-width="1.5" transform="translate(1 1)">
    <path stroke="#116149" d="M41.6752137,33.8119658 C41.6752137,38.1564103 38.1524786,41.6752137 33.8139316,41.6752137 C29.4694872,41.6752137 25.9487179,38.1564103 25.9487179,33.8119658 C25.9487179,29.4675214 29.4694872,25.9487179 33.8139316,25.9487179 C38.1524786,25.9487179 41.6752137,29.4675214 41.6752137,33.8119658 L41.6752137,33.8119658 Z"/>
    <path stroke="#116149" stroke-linecap="round" d="M39.3714786,39.3714786 L45.6070342,45.6070342"/>
    <path stroke="#15CC62" stroke-linecap="round" d="M41.6752137,12.1880342 C41.6752137,13.2711966 40.7964957,14.1538462 39.7094017,14.1538462 L2.35897436,14.1538462 C1.27188034,14.1538462 0.393162393,13.2711966 0.393162393,12.1880342 L0.393162393,2.35897436 C0.393162393,1.27384615 1.27188034,0.393162393 2.35897436,0.393162393 L39.7094017,0.393162393 C40.7964957,0.393162393 41.6752137,1.27384615 41.6752137,2.35897436 L41.6752137,12.1880342 L41.6752137,12.1880342 Z"/>
    <path stroke="#116149" stroke-linecap="round" d="M15.1367521 10.2222222L34.7948718 10.2222222M15.1367521 6.29059829L34.7948718 6.29059829"/>
    <path stroke="#15CC62" stroke-linecap="round" d="M9.23931624 7.27350427C9.23931624 8.35666667 8.36059829 9.23931624 7.27350427 9.23931624 6.18641026 9.23931624 5.30769231 8.35666667 5.30769231 7.27350427 5.30769231 6.18837607 6.18641026 5.30769231 7.27350427 5.30769231 8.36059829 5.30769231 9.23931624 6.18837607 9.23931624 7.27350427L9.23931624 7.27350427zM17.1025641 27.9145299L2.35897436 27.9145299C1.27188034 27.9145299.393162393 27.0318803.393162393 25.9487179L.393162393 16.1196581C.393162393 15.0345299 1.27188034 14.1538462 2.35897436 14.1538462L39.7094017 14.1538462C40.7964957 14.1538462 41.6752137 15.0345299 41.6752137 16.1196581L41.6752137 21.034188"/>
    <path stroke="#116149" stroke-linecap="round" d="M15.1367521 23.982906L19.0683761 23.982906M15.1367521 20.0512821L21.034188 20.0512821"/>
    <path stroke="#15CC62" stroke-linecap="round" d="M9.23931624 21.034188C9.23931624 22.1173504 8.36059829 23 7.27350427 23 6.18641026 23 5.30769231 22.1173504 5.30769231 21.034188 5.30769231 19.9490598 6.18641026 19.0683761 7.27350427 19.0683761 8.36059829 19.0683761 9.23931624 19.9490598 9.23931624 21.034188L9.23931624 21.034188zM19.0683761 41.6752137L2.35897436 41.6752137C1.27188034 41.6752137.393162393 40.7925641.393162393 39.7094017L.393162393 29.8803419C.393162393 28.7952137 1.27188034 27.9145299 2.35897436 27.9145299L17.1025641 27.9145299"/>
    <path stroke="#15CC62" stroke-linecap="round" d="M9.23931624,34.7948718 C9.23931624,35.8780342 8.36059829,36.7606838 7.27350427,36.7606838 C6.18641026,36.7606838 5.30769231,35.8780342 5.30769231,34.7948718 C5.30769231,33.7097436 6.18641026,32.8290598 7.27350427,32.8290598 C8.36059829,32.8290598 9.23931624,33.7097436 9.23931624,34.7948718 L9.23931624,34.7948718 Z"/>
  </g>
</svg>
