<svg xmlns="http://www.w3.org/2000/svg" viewBox="0 0 48 48">
  <g fill="none" fill-rule="evenodd" stroke-linejoin="round" stroke-width="2" transform="translate(1 1)">
    <path stroke="#116149" d="M42,34 C42,38.42 38.416,42 34.002,42 C29.582,42 26,38.42 26,34 C26,29.58 29.582,26 34.002,26 C38.416,26 42,29.58 42,34 L42,34 Z"/>
    <path stroke="#116149" stroke-linecap="round" d="M39.6562,39.6562 L46.0002,46.0002"/>
    <path stroke="#16CC62" stroke-linecap="round" d="M42,12 C42,13.102 41.106,14 40,14 L2,14 C0.894,14 0,13.102 0,12 L0,2 C0,0.896 0.894,0 2,0 L40,0 C41.106,0 42,0.896 42,2 L42,12 L42,12 Z"/>
    <path stroke="#116149" stroke-linecap="round" d="M15 10L35 10M15 6L35 6"/>
    <path stroke="#16CC62" stroke-linecap="round" d="M9 7C9 8.102 8.106 9 7 9 5.894 9 5 8.102 5 7 5 5.896 5.894 5 7 5 8.106 5 9 5.896 9 7L9 7zM17 28L2 28C.894 28 0 27.102 0 26L0 16C0 14.896.894 14 2 14L40 14C41.106 14 42 14.896 42 16L42 21"/>
    <path stroke="#116149" stroke-linecap="round" d="M15 24L19 24M15 20L21 20"/>
    <path stroke="#16CC62" stroke-linecap="round" d="M9 21C9 22.102 8.106 23 7 23 5.894 23 5 22.102 5 21 5 19.896 5.894 19 7 19 8.106 19 9 19.896 9 21L9 21zM19 42L2 42C.894 42 0 41.102 0 40L0 30C0 28.896.894 28 2 28L17 28"/>
    <path stroke="#16CC62" stroke-linecap="round" d="M9,35 C9,36.102 8.106,37 7,37 C5.894,37 5,36.102 5,35 C5,33.896 5.894,33 7,33 C8.106,33 9,33.896 9,35 L9,35 Z"/>
  </g>
</svg>
