<svg xmlns="http://www.w3.org/2000/svg" xmlns:xlink="http://www.w3.org/1999/xlink"
  version="1.1" x="0px" y="0px" viewBox="0 0 436 136"
  enable-background="new 0 0 436 136" xml:space="preserve">
  <g id="nucleus-icon" data-noun-id="3004" data-url="https://thenounproject.com/term/particle/3004/" data-attribution="Nucleus by Chad Wimberly from the Noun Project" transform="scale(0.9957777903384514)">
    <polygon points="61.866,31.14 65.454,29.609 64.841,28.109 61.213,29.656 " transform="translate(-6.104000091552734,0.1889999806880951)" fill="#E24F6A"></polygon>
    <path d="M92.193,26.097l1.496-0.623c-0.618-1.522-2.169-2.462-3.53-2.718l-0.427,1.564C90.915,24.55,91.826,25.21,92.193,26.097z" transform="translate(-6.104000091552734,0.1889999806880951)" fill="#E24F6A"></path>
    <path d="M84.142,24.161l-0.181-1.61c-1.333,0.15-2.648,0.368-3.943,0.663l0.336,1.585C81.611,24.512,82.875,24.304,84.142,24.161z" transform="translate(-6.104000091552734,0.1889999806880951)" fill="#E24F6A"></path>
    <path d="M74.707,26.286l-0.475-1.549c-1.266,0.376-2.52,0.786-3.755,1.24l0.537,1.529C72.234,27.057,73.465,26.655,74.707,26.286z" transform="translate(-6.104000091552734,0.1889999806880951)" fill="#E24F6A"></path>
    <path d="M74.774,47.461l0.984,1.288c1.057-0.782,2.064-1.632,3.099-2.446l-1.023-1.257C76.813,45.85,75.82,46.688,74.774,47.461z" transform="translate(-6.104000091552734,0.1889999806880951)" fill="#E24F6A"></path>
    <path d="M82.301,41.207l1.092,1.198c0.969-0.897,1.949-1.78,2.861-2.74l-1.15-1.141C84.215,39.46,83.25,40.327,82.301,41.207z" transform="translate(-6.104000091552734,0.1889999806880951)" fill="#E24F6A"></path>
    <path d="M92.549,31.863l-1.411-0.797c-0.673,1.065-1.339,2.134-2.16,3.124l1.278,0.997C91.106,34.159,91.83,33.012,92.549,31.863z" transform="translate(-6.104000091552734,0.1889999806880951)" fill="#E24F6A"></path>
    <path d="M22.817,74.508l0.414,1.568c1.289-0.311,2.541-0.727,3.804-1.112l-0.492-1.546C25.303,73.798,24.072,74.207,22.817,74.508z" transform="translate(-6.104000091552734,0.1889999806880951)" fill="#E24F6A"></path>
    <path d="M32.098,71.465l0.578,1.515c1.221-0.489,2.461-0.936,3.666-1.463l-0.623-1.496C34.527,70.544,33.304,70.98,32.098,71.465z" transform="translate(-6.104000091552734,0.1889999806880951)" fill="#E24F6A"></path>
    <path d="M9.438,65.611l1.306,0.959c0.76-1.025,1.563-2.02,2.442-2.965l-1.207-1.082C11.076,63.496,10.236,64.534,9.438,65.611z" transform="translate(-6.104000091552734,0.1889999806880951)" fill="#E24F6A"></path>
    <path d="M8.111,71.498L6.54,71.1c-0.436,1.313-0.397,3.142,0.672,4.407l1.265-1.013C7.845,73.756,7.747,72.634,8.111,71.498z" transform="translate(-6.104000091552734,0.1889999806880951)" fill="#E24F6A"></path>
    <path d="M13.271,76.024l-0.016,1.619c1.355-0.047,2.71-0.101,4.026-0.324l-0.223-1.605C15.789,75.931,14.53,75.975,13.271,76.024z" transform="translate(-6.104000091552734,0.1889999806880951)" fill="#E24F6A"></path>
    <path d="M16.239,58.219l1.105,1.186c0.94-0.891,1.904-1.757,2.902-2.588l-1.057-1.229C18.179,56.43,17.198,57.311,16.239,58.219z" transform="translate(-6.104000091552734,0.1889999806880951)" fill="#E24F6A"></path>
    <polygon points="40.149,26.555 38.543,26.336 38.068,30.251 39.68,30.428 " transform="translate(-6.104000091552734,0.1889999806880951)" fill="#E24F6A"></polygon>
    <path d="M50.477,1.643l0.209-1.607c-1.628-0.225-3.218,0.647-4.119,1.697l1.14,1.152C48.498,1.976,49.524,1.518,50.477,1.643z" transform="translate(-6.104000091552734,0.1889999806880951)" fill="#E24F6A"></path>
    <path d="M44.774,7.647l-1.485-0.648c-0.536,1.229-1.005,2.478-1.397,3.745l1.54,0.503C43.813,10.014,44.264,8.815,44.774,7.647z" transform="translate(-6.104000091552734,0.1889999806880951)" fill="#E24F6A"></path>
    <polygon points="41.897,16.881 40.318,16.516 39.513,20.389 41.106,20.688 " transform="translate(-6.104000091552734,0.1889999806880951)" fill="#E24F6A"></polygon>
    <polygon points="60.269,27.411 61.876,27.202 61.308,23.296 59.708,23.553 " transform="translate(-6.104000091552734,0.1889999806880951)" fill="#E24F6A"></polygon>
    <path d="M60.199,17.417c-0.293-1.287-0.566-2.577-0.942-3.848l-1.563,0.427c0.367,1.237,0.634,2.506,0.922,3.769L60.199,17.417z" transform="translate(-6.104000091552734,0.1889999806880951)" fill="#E24F6A"></path>
    <path d="M57.38,7.866c-0.465-1.251-1.097-2.45-1.731-3.648l-1.396,0.824c0.586,1.116,1.179,2.228,1.625,3.434L57.38,7.866z" transform="translate(-6.104000091552734,0.1889999806880951)" fill="#E24F6A"></path>
    <path d="M57.714,85.93l1.563,0.425c0.376-1.271,0.644-2.563,0.938-3.85l-1.583-0.346C58.342,83.421,58.08,84.692,57.714,85.93z" transform="translate(-6.104000091552734,0.1889999806880951)" fill="#E24F6A"></path>
    <polygon points="59.719,76.37 61.319,76.627 61.886,72.721 60.278,72.513 " transform="translate(-6.104000091552734,0.1889999806880951)" fill="#E24F6A"></polygon>
    <path d="M41.915,89.324c0.391,1.268,0.872,2.512,1.403,3.743l1.484-0.651c-0.506-1.171-0.967-2.364-1.346-3.598L41.915,89.324z" transform="translate(-6.104000091552734,0.1889999806880951)" fill="#E24F6A"></path>
    <path d="M47.754,97.16l-1.131,1.161c0.92,1.035,2.522,1.914,4.153,1.622l-0.246-1.603C49.576,98.52,48.555,98.043,47.754,97.16z" transform="translate(-6.104000091552734,0.1889999806880951)" fill="#E24F6A"></path>
    <path d="M54.253,94.954l1.396,0.824c0.636-1.198,1.268-2.398,1.732-3.648l-1.503-0.61C55.433,92.727,54.84,93.839,54.253,94.954z" transform="translate(-6.104000091552734,0.1889999806880951)" fill="#E24F6A"></path>
    <polygon points="39.689,69.642 38.077,69.817 38.554,73.732 40.16,73.513 " transform="translate(-6.104000091552734,0.1889999806880951)" fill="#E24F6A"></polygon>
    <path d="M39.514,79.609c0.225,1.298,0.497,2.588,0.804,3.871l1.579-0.363c-0.301-1.26-0.569-2.528-0.79-3.808L39.514,79.609z" transform="translate(-6.104000091552734,0.1889999806880951)" fill="#E24F6A"></path>
    <polygon points="24.851,46.944 23.857,48.226 26.219,49.998 23.799,51.816 24.792,53.098 27.91,50.755 27.402,50.062 27.97,49.286   " transform="translate(-6.104000091552734,0.1889999806880951)" fill="#E24F6A"></polygon>
    <path d="M8.13,28.562c-0.392-1.138-0.274-2.256,0.31-3.018l-1.287-0.985c-1.01,1.296-1.048,3.109-0.591,4.416L8.13,28.562z" transform="translate(-6.104000091552734,0.1889999806880951)" fill="#E24F6A"></path>
    <path d="M9.484,34.445c0.797,1.08,1.643,2.11,2.545,3.083l1.206-1.083c-0.878-0.946-1.689-1.936-2.447-2.962L9.484,34.445z" transform="translate(-6.104000091552734,0.1889999806880951)" fill="#E24F6A"></path>
    <path d="M16.241,41.778c0.959,0.907,1.94,1.789,2.952,2.631l1.055-1.229c-0.997-0.831-1.961-1.698-2.901-2.588L16.241,41.778z" transform="translate(-6.104000091552734,0.1889999806880951)" fill="#E24F6A"></path>
    <polygon points="36.274,28.449 32.607,26.989 32.031,28.503 35.652,29.946 " transform="translate(-6.104000091552734,0.1889999806880951)" fill="#E24F6A"></polygon>
    <path d="M26.963,25.01c-1.261-0.39-2.516-0.798-3.804-1.108l-0.412,1.567c1.255,0.302,2.488,0.704,3.725,1.086L26.963,25.01z" transform="translate(-6.104000091552734,0.1889999806880951)" fill="#E24F6A"></path>
    <path d="M17.057,24.282l0.224-1.606c-1.315-0.223-2.67-0.275-4.026-0.324l0.016,1.621C14.531,24.022,15.789,24.066,17.057,24.282z" transform="translate(-6.104000091552734,0.1889999806880951)" fill="#E24F6A"></path>
    <path d="M82.247,58.736c0.949,0.883,1.918,1.744,2.807,2.682l1.15-1.141c-0.913-0.963-1.898-1.838-2.865-2.738L82.247,58.736z" transform="translate(-6.104000091552734,0.1889999806880951)" fill="#E24F6A"></path>
    <path d="M74.716,52.489c1.05,0.771,2.04,1.611,3.062,2.413l1.022-1.258c-1.034-0.812-2.039-1.665-3.099-2.442L74.716,52.489z" transform="translate(-6.104000091552734,0.1889999806880951)" fill="#E24F6A"></path>
    <path d="M80.094,76.796c1.293,0.297,2.611,0.504,3.943,0.659l0.179-1.612c-1.267-0.146-2.531-0.344-3.789-0.633L80.094,76.796z" transform="translate(-6.104000091552734,0.1889999806880951)" fill="#E24F6A"></path>
    <path d="M92.211,73.846c-0.324,0.915-1.246,1.561-2.411,1.814l0.44,1.56c1.355-0.28,2.919-1.228,3.48-2.785L92.211,73.846z" transform="translate(-6.104000091552734,0.1889999806880951)" fill="#E24F6A"></path>
    <path d="M92.551,68.131c-0.721-1.148-1.443-2.295-2.295-3.324l-1.277,0.996c0.821,0.99,1.487,2.06,2.16,3.125L92.551,68.131z" transform="translate(-6.104000091552734,0.1889999806880951)" fill="#E24F6A"></path>
    <polygon points="61.283,70.369 64.911,71.914 65.523,70.413 61.936,68.885 " transform="translate(-6.104000091552734,0.1889999806880951)" fill="#E24F6A"></polygon>
    <polygon points="70.48,74.021 74.235,75.26 74.71,73.71 71.018,72.49 " transform="translate(-6.104000091552734,0.1889999806880951)" fill="#E24F6A"></polygon>
    <path d="M34.099,42.917c-1.702,1.671-2.76,3.996-2.76,6.571c0,2.245,0.805,4.302,2.139,5.9c0.527-2.115,1.649-3.992,3.184-5.445  C35.083,48.027,34.128,45.581,34.099,42.917z" transform="translate(-6.104000091552734,0.1889999806880951)" fill="#E24F6A"></path>
    <path d="M54.964,36.991c1.182-0.423,2.449-0.666,3.775-0.666c1.678,0,3.264,0.379,4.695,1.04c-1.381-3.347-4.672-5.705-8.52-5.705  c-1.606,0-3.116,0.413-4.432,1.136C52.338,33.754,53.888,35.212,54.964,36.991z" transform="translate(-6.104000091552734,0.1889999806880951)" fill="#E24F6A" id="yui_3_17_2_1_1460414852008_815"></path>
    <path d="M44.385,46.853c1.082,0,2.125,0.162,3.115,0.448c0.1-4.036,2.33-7.544,5.609-9.45c-1.636-2.566-4.499-4.273-7.769-4.273  c-5.086,0-9.21,4.126-9.21,9.215c0,2.239,0.8,4.29,2.127,5.887C40.023,47.528,42.125,46.853,44.385,46.853z" transform="translate(-6.104000091552734,0.1889999806880951)" fill="#E24F6A"></path>
    <path d="M55.623,58.379c-0.073,3.021-1.335,5.751-3.345,7.732c1.344,0.766,2.895,1.208,4.551,1.208c5.092,0,9.215-4.122,9.215-9.21  c0-0.627-0.063-1.239-0.184-1.83c-1.94,1.59-4.42,2.547-7.121,2.547C57.658,58.826,56.614,58.664,55.623,58.379z" transform="translate(-6.104000091552734,0.1889999806880951)" fill="#E24F6A"></path>
    <path d="M47.664,49.501c-1.02-0.389-2.122-0.611-3.278-0.611c-5.091,0-9.214,4.125-9.214,9.213c0,5.088,4.124,9.215,9.214,9.215  c5.089,0,9.214-4.127,9.214-9.215c0-0.184-0.017-0.362-0.027-0.544C50.508,55.968,48.272,53.013,47.664,49.501z" transform="translate(-6.104000091552734,0.1889999806880951)" fill="#E24F6A"></path>
    <circle cx="58.739" cy="47.576" r="9.213" transform="translate(-6.104000091552734,0.1889999806880951)" fill="#E24F6A" id="yui_3_17_2_1_1460414852008_806"></circle>
  </g>
  <g id="title" transform="translate(160, 0) scale(1)">
    <text font-size="80px" dominant-baseline="text-before-edge" alignment-baseline="text-before-edge" fill="#42494F" font-family="AkzidenzGroteskStd-Md">Hadron</text>
  </g>
  <g id="subtitle" transform="translate(352, 80) scale(1)">
    <text font-size="30px" dominant-baseline="text-before-edge" alignment-baseline="text-before-edge" fill="#E24F6A" font-family="AkzidenzGroteskStd-Md">Build</text>
  </g>
</svg>
