<svg width="350" height="125" xmlns="http://www.w3.org/2000/svg">
 <defs>
  <!-- @see http://frabru.de/c.php/article/SVGFonts-usage -->
  <!-- Akzidenz Grotesk Std Medium -->
 </defs>
 <g>
  <title>background</title>
  <rect x="-1" y="-1" width="352" height="127" id="canvas_background" fill="none"/>
 </g>
 <g>
  <title>Layer 1</title>
  <g id="nucleus-icon" transform="translate(0,1) scale(1.2000000476837158) " stroke="null">
   <polygon points="56.87339886766472,32.68369511376926 60.425671554561404,31.167944131582715 59.818776707326606,29.68288081714485 56.226901425634196,31.214476991632125 " fill="#42494f" id="svg_1" stroke="null"/>
   <path d="m86.89841,27.69092l1.4811,-0.6168c-0.61184,-1.50684 -2.1474,-2.43748 -3.49485,-2.69093l-0.42274,1.54842c1.17122,0.22771 2.07314,0.88114 2.43649,1.75931z" fill="#42494f" id="svg_2" stroke="null"/>
   <path d="m78.92758,25.77419l-0.1792,-1.59396c-1.31972,0.1485 -2.62163,0.36433 -3.90373,0.65639l0.33265,1.56922c1.24448,-0.28414 2.4959,-0.49007 3.75028,-0.63165z" fill="#42494f" id="svg_3" stroke="null"/>
   <path d="m69.58653,27.87803l-0.47027,-1.53357c-1.25339,0.37226 -2.4949,0.77817 -3.71761,1.22765l0.53166,1.51378c1.20785,-0.44453 2.42659,-0.84253 3.65622,-1.20786z" fill="#42494f" id="svg_4" stroke="null"/>
   <path d="m69.65287,48.84218l0.9742,1.27517c1.04647,-0.77421 2.04344,-1.61575 3.06814,-2.42164l-1.01281,-1.24448c-1.01084,0.79599 -1.99395,1.62564 -3.02953,2.39095z" fill="#42494f" id="svg_5" stroke="null"/>
   <path d="m77.10491,42.65045l1.08113,1.18608c0.95935,-0.88807 1.92959,-1.76228 2.83251,-2.71272l-1.13855,-1.12964c-0.88015,0.92668 -1.83554,1.78505 -2.77509,2.65628z" fill="#42494f" id="svg_6" stroke="null"/>
   <path d="m87.25087,33.3995l-1.39695,-0.78906c-0.6663,1.05439 -1.32567,2.11275 -2.1385,3.09289l1.26528,0.98707c0.84153,-1.01776 1.55832,-2.15334 2.27017,-3.2909z" fill="#42494f" id="svg_7" stroke="null"/>
   <path d="m18.21324,75.61985l0.40988,1.55239c1.27616,-0.30791 2.5157,-0.71977 3.76612,-1.10093l-0.4871,-1.53061c-1.22765,0.37622 -2.44639,0.78115 -3.6889,1.07915z" fill="#42494f" id="svg_8" stroke="null"/>
   <path d="m27.40182,72.60715l0.57225,1.49992c1.20884,-0.48414 2.43649,-0.92668 3.62949,-1.44844l-0.61679,-1.4811c-1.18013,0.51779 -2.39095,0.94945 -3.58495,1.42962z" fill="#42494f" id="svg_9" stroke="null"/>
   <path d="m4.96747,66.81144l1.29299,0.94945c0.75243,-1.01479 1.54744,-1.99988 2.41769,-2.93547l-1.19499,-1.07123c-0.894,0.96331 -1.72564,1.99098 -2.51569,3.05725z" fill="#42494f" id="svg_10" stroke="null"/>
   <path d="m3.65368,72.63982l-1.55536,-0.39404c-0.43165,1.29993 -0.39304,3.11072 0.66531,4.36312l1.25241,-1.00291c-0.62571,-0.73065 -0.72274,-1.84148 -0.36236,-2.96617z" fill="#42494f" id="svg_11" stroke="null"/>
   <path d="m8.7623,77.12075l-0.01584,1.60288c1.34151,-0.04653 2.68301,-0.09999 3.98591,-0.32077l-0.22078,-1.58902c-1.25636,0.21484 -2.50283,0.2584 -3.74929,0.30691z" fill="#42494f" id="svg_12" stroke="null"/>
   <path d="m11.70074,59.49305l1.094,1.17419c0.93064,-0.88213 1.88504,-1.7395 2.8731,-2.56223l-1.04647,-1.21676c-0.99994,0.83362 -1.97118,1.70584 -2.92063,2.6048z" fill="#42494f" id="svg_13" stroke="null"/>
   <polygon points="35.37264936114639,28.14435626575954 33.78264256954003,27.92753715781322 33.31237403065256,31.80355142655111 34.90832158914941,31.97878705461966 " fill="#42494f" id="svg_14" stroke="null"/>
   <path d="m45.59781,3.48042l0.20692,-1.59099c-1.61179,-0.22276 -3.18596,0.64055 -4.07798,1.6801l1.12864,1.14053c0.78313,-0.89995 1.79891,-1.35339 2.74242,-1.22964z" fill="#42494f" id="svg_15" stroke="null"/>
   <path d="m39.9516,9.42464l-1.47021,-0.64155c-0.53067,1.21676 -0.995,2.45333 -1.38309,3.70771l1.52466,0.49799c0.37721,-1.22072 0.82372,-2.40778 1.32864,-3.56415z" fill="#42494f" id="svg_16" stroke="null"/>
   <polygon points="37.10324423126417,18.566688141340762 35.53996900230936,18.205322961430227 34.742984721424136,22.039755638646 36.32012048088632,22.335778047828114 " fill="#42494f" id="svg_17" stroke="null"/>
   <polygon points="55.29230133803844,28.991831400146964 56.883297628007995,28.784912940899574 56.320952867384904,24.917807934141763 54.73688684266904,25.17224875180176 " fill="#42494f" id="svg_18" stroke="null"/>
   <path d="m55.223,19.09735c-0.29008,-1.27418 -0.56036,-2.55134 -0.93262,-3.80968l-1.54744,0.42275c0.36335,1.22468 0.62769,2.48104 0.91282,3.73146l1.56724,-0.34453z" fill="#42494f" id="svg_19" stroke="null"/>
   <path d="m52.43207,9.64146c-0.46037,-1.23855 -1.08607,-2.42561 -1.71376,-3.61168l-1.3821,0.8158c0.58016,1.10489 1.16726,2.20581 1.60882,3.3998l1.48704,-0.60392z" fill="#42494f" id="svg_20" stroke="null"/>
   <path d="m52.76275,86.92811l1.54743,0.42077c0.37226,-1.25834 0.63759,-2.53748 0.92866,-3.81166l-1.56724,-0.34256c-0.28711,1.24943 -0.5465,2.50778 -0.90885,3.73345z" fill="#42494f" id="svg_21" stroke="null"/>
   <polygon points="54.74777887808682,77.46331890875894 56.331844902802686,77.71775594970762 56.89320016506258,73.85065283130547 55.30121060001852,73.64472387042127 " fill="#42494f" id="svg_22" stroke="null"/>
   <path d="m37.12107,90.28831c0.38711,1.25538 0.86332,2.48699 1.38903,3.70573l1.46922,-0.64451c-0.50096,-1.15934 -0.95737,-2.34046 -1.3326,-3.56218l-1.52565,0.50096z" fill="#42494f" id="svg_23" stroke="null"/>
   <path d="m42.90192,98.04629l-1.11973,1.14943c0.91084,1.0247 2.49688,1.89495 4.11164,1.60585l-0.24355,-1.58704c-0.9445,0.17821 -1.95533,-0.29404 -2.74835,-1.16825l-0.00001,0.00001z" fill="#42494f" id="svg_24" stroke="null"/>
   <path d="m49.33621,95.86225l1.3821,0.8158c0.62966,-1.18607 1.25537,-2.37412 1.71475,-3.61168l-1.48803,-0.60392c-0.44057,1.19498 -1.02767,2.29591 -1.60882,3.3998z" fill="#42494f" id="svg_25" stroke="null"/>
   <polygon points="34.91723085112949,70.80231051120148 33.32128329263264,70.97557091925495 33.79353460495781,74.8515870763485 35.38354139656417,74.63476608004652 " fill="#42494f" id="svg_26" stroke="null"/>
   <path d="m34.74398,80.67006c0.22276,1.28507 0.49205,2.56222 0.79599,3.83245l1.56328,-0.35939c-0.29801,-1.24745 -0.56334,-2.50282 -0.78214,-3.77008l-1.57713,0.29702z" fill="#42494f" id="svg_27" stroke="null"/>
   <polygon points="20.22698897101577,48.33032304066995 19.242887528281017,49.59955863388035 21.581366743996796,51.35391279484878 19.18546452116948,53.15381031750343 20.168576465541037,54.423042134002515 23.25552810536624,52.1033747173214 22.752587236936733,51.417274680495154 23.31493010920417,50.64900095898787 " fill="#42494f" id="svg_28" stroke="null"/>
   <path d="m3.67249,30.13137c-0.3881,-1.12667 -0.27127,-2.23353 0.30692,-2.98795l-1.27419,-0.97519c-0.99994,1.2831 -1.03756,3.07804 -0.58511,4.37203l1.55238,-0.40889z" fill="#42494f" id="svg_29" stroke="null"/>
   <path d="m5.01301,35.95579c0.78906,1.06924 1.62664,2.08899 2.51966,3.0523l1.19399,-1.07222c-0.86926,-0.93658 -1.67218,-1.91672 -2.42264,-2.9325l-1.29101,0.95242z" fill="#42494f" id="svg_30" stroke="null"/>
   <path d="m11.70272,43.21577c0.94945,0.89797 1.92069,1.77118 2.92261,2.6048l1.04449,-1.21676c-0.98707,-0.82273 -1.94147,-1.6811 -2.87211,-2.56223l-1.09498,1.17419l-0.00001,0z" fill="#42494f" id="svg_31" stroke="null"/>
   <polygon points="31.536239575559875,30.019495319485884 27.905754974146248,28.574034599843742 27.335490449906274,30.07295844478898 30.920435466344998,31.501588250478505 " fill="#42494f" id="svg_32" stroke="null"/>
   <path d="m22.31796,26.61474c-1.24845,-0.38612 -2.49095,-0.79005 -3.76612,-1.09697l-0.4079,1.5514c1.2425,0.29899 2.46322,0.69699 3.68791,1.07519l0.48611,-1.52962z" fill="#42494f" id="svg_33" stroke="null"/>
   <path d="m12.5106,25.89399l0.22177,-1.59001c-1.30191,-0.22078 -2.64342,-0.27226 -3.98591,-0.32077l0.01584,1.60486c1.24745,0.04851 2.49292,0.09207 3.7483,0.30592z" fill="#42494f" id="svg_34" stroke="null"/>
   <path d="m77.05145,60.0049c0.93955,0.87421 1.8989,1.72664 2.77905,2.6553l1.13855,-1.12964c-0.90391,-0.95341 -1.8791,-1.8197 -2.83647,-2.71074l-1.08113,1.18508z" fill="#42494f" id="svg_35" stroke="null"/>
   <path d="m69.59544,53.82011c1.03955,0.76332 2.01969,1.59496 3.03151,2.38897l1.01183,-1.24547c-1.02371,-0.80391 -2.0187,-1.64842 -3.06815,-2.41768l-0.97519,1.27418z" fill="#42494f" id="svg_36" stroke="null"/>
   <path d="m74.91989,77.88507c1.28012,0.29404 2.585,0.49898 3.90374,0.65243l0.17721,-1.59594c-1.25438,-0.14455 -2.50579,-0.34058 -3.75127,-0.6267l-0.32968,1.57021z" fill="#42494f" id="svg_37" stroke="null"/>
   <path d="m86.91623,74.96444c-0.32077,0.90589 -1.23359,1.54546 -2.38699,1.79594l0.43562,1.54447c1.3415,-0.27722 2.88993,-1.21578 3.44534,-2.75727l-1.49397,-0.58314z" fill="#42494f" id="svg_38" stroke="null"/>
   <path d="m87.25284,69.30635c-0.71382,-1.13657 -1.42863,-2.27215 -2.27214,-3.2909l-1.26429,0.98608c0.81283,0.98014 1.4722,2.03949 2.13849,3.09388l1.39794,-0.78906z" fill="#42494f" id="svg_39" stroke="null"/>
   <polygon points="56.29620407817106,71.52207615264427 59.88807935986347,73.05168955369385 60.49398470873507,71.56563674089278 56.94270152020158,70.05285236544017 " fill="#42494f" id="svg_40" stroke="null"/>
   <polygon points="65.4016359971099,75.13771072518733 69.11924177502055,76.3643714518011 69.58951031390802,74.82980300551293 65.93427314656924,73.62195030122251 " fill="#42494f" id="svg_41" stroke="null"/>
   <path d="m29.3829,44.34343c-1.68505,1.65436 -2.73252,3.95621 -2.73252,6.50556c0,2.22265 0.79699,4.25916 2.1177,5.84125c0.52175,-2.09394 1.63258,-3.95225 3.1523,-5.39078c-1.56328,-1.89692 -2.50877,-4.31856 -2.53748,-6.95604l0,0.00001z" fill="#42494f" id="svg_42" stroke="null"/>
   <path d="m50.04013,38.47644c1.17023,-0.41879 2.42461,-0.65937 3.73741,-0.65937c1.66129,0 3.2315,0.37522 4.64825,1.02964c-1.36725,-3.31367 -4.62548,-5.64819 -8.43516,-5.64819c-1.59001,0 -3.08498,0.40889 -4.38787,1.12469c1.83752,0.94846 3.37208,2.39194 4.43737,4.15323z" fill="#42494f" id="yui_3_17_2_1_1460414852008_815" stroke="null"/>
   <path d="m39.56647,48.24023c1.07123,0 2.10384,0.16039 3.08398,0.44354c0.09901,-3.99581 2.3068,-7.46888 5.55315,-9.3559c-1.61971,-2.54045 -4.4542,-4.23045 -7.69164,-4.23045c-5.03535,0 -9.11829,4.08492 -9.11829,9.12324c0,2.21671 0.79204,4.24728 2.10582,5.82838c1.74842,-1.14053 3.82949,-1.80881 6.06698,-1.80881z" fill="#42494f" id="svg_43" stroke="null"/>
   <path d="m50.69257,59.65146c-0.07228,2.99092 -1.32171,5.69373 -3.31169,7.65501c1.33061,0.75837 2.86617,1.19597 4.50568,1.19597c5.04129,0 9.12324,-4.08096 9.12324,-9.11829c0,-0.62076 -0.06238,-1.22666 -0.18217,-1.81178c-1.92068,1.57417 -4.37599,2.52164 -7.05009,2.52164c-1.07024,0 -2.10384,-0.16039 -3.08497,-0.44255z" fill="#42494f" id="svg_44" stroke="null"/>
   <path d="m42.81282,50.86186c-1.00984,-0.38512 -2.10087,-0.60491 -3.24536,-0.60491c-5.0403,0 -9.12225,4.08392 -9.12225,9.12126c0,5.03733 4.08294,9.12324 9.12225,9.12324c5.03833,0 9.12225,-4.08591 9.12225,-9.12324c0,-0.18217 -0.01683,-0.3584 -0.02673,-0.53859c-3.03448,-1.57515 -5.24821,-4.50073 -5.85016,-7.97776z" fill="#42494f" id="svg_45" stroke="null"/>
   <circle cx="53.77754" cy="48.95603" r="9.12126" fill="#42494f" id="yui_3_17_2_1_1460414852008_806" stroke="null"/>
  </g>
  <g id="title" transform="translate(120,30) scale(1) " stroke="null">
   <text font-size="60px" fill="#42494f" font-family="AkzidenzGroteskStd-Md" id="svg_46" y="48.48534" x="9.550274" transform="matrix(1.1601426829672619,0,0,1.1601426829672619,-14.078779862111787,1.0198251802217762) " stroke="null">Hadron</text>
  </g>
 </g>
</svg>