<svg xmlns="http://www.w3.org/2000/svg" xmlns:xlink="http://www.w3.org/1999/xlink" version="1.1" x="0px" y="0px" viewBox="0 0 100 100" style="enable-background:new 0 0 100 100;" xml:space="preserve" fill="#ddd"><path d="M37.482,63.355c-2.158-11.904-5.992-22.069-11.573-30.436c-0.663,0.285-0.919,0.609-0.6,1.131  c0.014,0.063,0.092,0.111,0.106,0.174c0.063-0.014,0.077,0.048,0.14,0.034c0.063-0.015,0.14,0.034,0.218,0.082  c0.077,0.048,0.155,0.097,0.232,0.145c0.077,0.048,0.092,0.111,0.169,0.16c0.106,0.174,0.198,0.285,0.304,0.46  c0.092,0.111,0.135,0.3,0.179,0.489c0.014,0.063,0.043,0.189,0.058,0.252c0.029,0.126-0.019,0.203-0.005,0.266  c-0.048,0.077-0.034,0.14-0.068,0.28c4.785,9.414,6.699,18.85,5.748,28.344C22.359,67.96,13.034,73.939,5.635,82.69  c30.323,5.555,59.252,5.555,89.575,0C80.418,65.197,57.942,58.76,37.482,63.355z"></path><path d="M23.655,35.491c0.14,0.034,0.218,0.082,0.295,0.131c0.155,0.097,0.309,0.194,0.401,0.305  c0.155,0.097,0.261,0.271,0.353,0.382c0.106,0.174,0.198,0.285,0.242,0.474c0.029,0.126,0.072,0.314,0.101,0.44  c1.219,0.117,1.761-1.266,1.012-2.219C25.309,34.051,23.834,34.258,23.655,35.491z"></path><path d="M21.445,35.669c0.048-0.077,0.111-0.092,0.16-0.169c0.063-0.014,0.111-0.092,0.237-0.121  c0.063-0.014,0.063-0.014,0.126-0.029c0.063-0.014,0.126-0.029,0.252-0.058c0.126-0.029,0.314-0.072,0.44-0.101  c0.155,0.097,0.343,0.053,0.484,0.087c-1.387-1.137-3.134,0.192-2.303,1.788c0.034-0.14,0.005-0.266,0.039-0.406  c0.034-0.14,0.068-0.28,0.165-0.435c0.034-0.14,0.145-0.232,0.242-0.387C21.333,35.761,21.396,35.747,21.445,35.669z"></path><path d="M5.946,44.271c0.189-0.043,0.426-0.164,0.614-0.208c0.31-0.667,0.682-1.349,1.118-2.045  c-0.121-0.237-0.319-0.522-0.44-0.759c0.329-0.01,0.706-0.096,1.035-0.106c0.547-0.788,1.219-1.605,1.906-2.359  c0.039-0.406,0.063-0.875,0.102-1.281c0.343,0.053,0.75,0.092,1.093,0.146c0.063-0.014,0.111-0.092,0.174-0.106  c0.842-0.657,1.698-1.252,2.631-1.798c0.179-0.372,0.373-0.682,0.489-1.04c0.469,0.024,0.875,0.063,1.344,0.088  c0.774-0.377,1.562-0.691,2.302-0.928c0.179-0.372,0.358-0.745,0.537-1.117c0.435,0.165,0.822,0.407,1.257,0.571  c1.432-0.396,2.815-0.715,4.15-0.956c-1.572-0.499-3.612-1.022-5.735-1.327c0.184,0.223,0.242,0.474,0.314,0.788  c-0.542-0.339-1.02-0.692-1.562-1.031c-1.016-0.097-2.017-0.131-3.003-0.103c0.13,0.566,0.275,1.195,0.405,1.76  c-0.914-0.518-1.75-0.987-2.664-1.505c-1.209,0.212-2.234,0.647-3.154,1.256c-0.745,0.503-1.384,1.179-1.867,1.953  c0.179,0.489,0.357,0.977,0.536,1.466c-0.421-0.102-0.827-0.141-1.248-0.242c-0.62,1.334-1.055,2.891-1.274,4.531  c0.324,0.256,0.662,0.576,1.049,0.818c-0.329,0.01-0.721,0.034-1.127-0.005c-0.112,0.953-0.146,1.954-0.132,2.877  c0.169,0.16,0.276,0.334,0.43,0.431c-0.126,0.029-0.314,0.072-0.44,0.101c0.004,1.456,0.168,2.742,0.303,3.903  c0.271-1.122,0.717-2.35,1.288-3.607C6.241,44.402,6.087,44.305,5.946,44.271z M7.094,39.769l4.05-4.839l4.116-1.676l2.878-0.729  l-2.917,1.135l-3.753,1.527l-3.89,4.67l-1.776,3.786L7.094,39.769z"></path><path d="M9.842,24.967c0.155,0.097,0.232,0.145,0.387,0.242c0.532,0.01,1.141,0.068,1.688,0.141  c0.111-0.092,0.208-0.247,0.319-0.338c0.169,0.16,0.338,0.319,0.508,0.479c0.75,0.092,1.451,0.262,2.215,0.417  c0.251-0.058,0.566-0.13,0.817-0.188c0.106,0.174,0.213,0.348,0.319,0.522c0.063-0.014,0.077,0.048,0.14,0.034  c0.716,0.232,1.446,0.528,2.19,0.886c0.266,0.005,0.532,0.01,0.875,0.063c0.184,0.223,0.29,0.397,0.474,0.619  c0.527,0.276,0.991,0.566,1.47,0.919c0.329-0.01,0.595-0.005,0.924-0.014c0.058,0.251,0.101,0.44,0.159,0.692  c0.803,0.61,1.528,1.171,2.19,1.747c-0.314-0.788-0.763-1.877-1.387-2.859c-0.295-0.131-0.469-0.024-0.58,0.067  c-0.01-0.329,0.058-0.609,0.049-0.938c-0.304-0.46-0.686-0.967-1.117-1.398c-0.285,0.198-0.648,0.348-0.934,0.546  c-0.053-0.518-0.029-0.987-0.082-1.504c-0.585-0.527-1.267-0.9-1.997-1.195c-0.59-0.261-1.291-0.431-1.963-0.475  c-0.223,0.184-0.445,0.367-0.668,0.551c-0.121-0.237-0.227-0.411-0.348-0.648c-1.064-0.02-2.225,0.115-3.308,0.299  c-0.019,0.203-0.102,0.421-0.121,0.624c-0.106-0.174-0.276-0.334-0.382-0.508c-0.629,0.145-1.257,0.29-1.872,0.497  c-0.048,0.077-0.082,0.218-0.131,0.295c-0.077-0.048-0.155-0.097-0.232-0.145c-0.866,0.266-1.654,0.58-2.302,0.928  c0.846-0.063,1.756-0.14,2.757-0.105C9.886,25.156,9.871,25.093,9.842,24.967z M13.059,24.558l4.647,0.916l2.616,1.582l1.528,1.171  l-1.857-1.161l-2.446-1.423l-4.367-0.848l-3.066-0.088L13.059,24.558z"></path><path d="M26.889,25.675c-0.116-0.503-0.154-0.958-0.27-1.461c0.363-0.15,0.725-0.3,1.088-0.449c0.407-0.822,0.813-1.644,1.283-2.48  c0.087-0.484,0.112-0.953,0.184-1.499c0.363-0.15,0.648-0.348,1.011-0.498c0.629-1.006,1.336-1.963,2.134-2.809  c0.048-0.077,0.111-0.092,0.16-0.169c0.039-0.406,0.078-0.812,0.054-1.204c0.392-0.024,0.735,0.029,1.127,0.005  c0.827-0.72,1.606-1.363,2.462-1.958c0.116-0.358,0.218-0.779,0.334-1.136c0.169,0.16,0.416,0.368,0.585,0.527  c0.697-0.425,1.345-0.773,2.007-1.058c0.082-0.218,0.227-0.45,0.31-0.667c0.043,0.189,0.072,0.314,0.053,0.518  c1.2-0.541,2.365-0.942,3.434-1.188c-0.919-0.252-2.103-0.509-3.322-0.625c-0.034,0.14-0.131,0.295-0.165,0.435  c-0.106-0.174-0.213-0.348-0.319-0.522c-0.812-0.078-1.673-0.078-2.534-0.078c-0.039,0.406-0.141,0.827-0.179,1.233  c-0.164-0.426-0.377-0.774-0.541-1.2c-1.427,0.13-2.873,0.463-4.198,1.033c-0.024,0.469-0.049,0.938-0.073,1.407  c-0.387-0.242-0.774-0.484-1.16-0.726c-0.808,0.517-1.524,1.146-2.071,1.934c-0.74,1.097-1.34,2.229-1.771,3.52  c0.295,0.992,0.526,1.997,0.821,2.989c-0.513-0.213-1.011-0.363-1.46-0.591c-0.223,1.044-0.368,2.137-0.499,3.293  c0.208,0.614,0.401,1.166,0.609,1.78c-0.218-0.082-0.498-0.15-0.716-0.232c-0.122,2.345-0.132,4.599,0.007,6.354  C25.674,28.736,26.25,27.213,26.889,25.675z M27.897,20.279l2.241-4.356l5.07-4.147l3.652-1.106l-3.661,1.638l-4.862,3.901  l-2.047,4.047l-1.529,3.133L27.897,20.279z"></path><path d="M35.832,21.96c-0.145,0.232-0.29,0.464-0.435,0.696c-0.121-0.237-0.242-0.474-0.362-0.711  c-0.595,0.005-1.098,0.12-1.635,0.377c-0.74,0.237-1.359,0.71-1.978,1.184c-0.199,0.575-0.32,1.199-0.518,1.775  c-0.184-0.223-0.382-0.508-0.566-0.73c-0.416,0.493-0.832,0.986-1.234,1.542c-0.053,0.343-0.17,0.701-0.208,1.107  c-0.092-0.111-0.184-0.223-0.276-0.334c-0.789,1.175-1.452,2.321-1.892,3.283c0.653-0.614,1.369-1.242,2.162-1.822  c0.068-0.28,0.213-0.513,0.281-0.793c0.203,0.019,0.469,0.024,0.687,0.107c0.46-0.304,0.919-0.609,1.379-0.913  c0.208-0.247,0.353-0.479,0.561-0.725c0.203,0.019,0.469,0.024,0.672,0.044c0.648-0.348,1.325-0.57,1.94-0.778  c0.063-0.014,0.063-0.014,0.126-0.029c0.145-0.232,0.242-0.387,0.387-0.619c0.218,0.082,0.387,0.242,0.604,0.324  c0.629-0.145,1.272-0.227,1.852-0.294c0.16-0.169,0.319-0.338,0.479-0.508c0.029,0.126,0.072,0.314,0.164,0.426  c0.455-0.039,0.924-0.014,1.33,0.025c0.111-0.092,0.223-0.184,0.348-0.213c-0.048,0.077-0.097,0.155-0.131,0.295  c0.89,0.126,1.591,0.296,2.229,0.48c-0.43-0.431-0.938-0.91-1.557-1.297c-0.048,0.077-0.174,0.106-0.223,0.184  c-0.029-0.126,0.005-0.266-0.01-0.329c-0.401-0.305-0.851-0.532-1.315-0.823c-0.16,0.169-0.305,0.401-0.464,0.57  c0.005-0.266,0.073-0.546,0.092-0.75C37.515,22.367,36.722,22.086,35.832,21.96z M39.608,24.269l-2.389-0.31l-3.705,0.589  l-2.312,1.46l-1.727,1.126l1.572-1.223l2.486-1.566l3.83-0.617L39.608,24.269z"></path><path d="M40.667,26.276c-0.939,0.812-1.877,1.624-2.816,2.436c-0.019-0.658-0.038-1.315-0.057-1.973  c-1.195,0.275-2.423,0.691-3.652,1.106c-0.542,0.522-1.084,1.044-1.563,1.552c-0.01-0.329-0.019-0.658-0.014-0.924  c-2.399,1.082-4.755,2.353-6.511,3.354c1.664-0.251,3.482-0.405,5.392-0.448c0.46-0.304,0.905-0.672,1.364-0.976  c0.338,0.319,0.614,0.653,0.952,0.972c1.064,0.02,2.065,0.054,3.158,0.2c0.551-0.193,1.103-0.386,1.606-0.502  c0.338,0.319,0.662,0.576,0.938,0.91c1.31,0.228,2.635,0.518,3.801,0.978c0.077,0.048,0.14,0.034,0.218,0.082  c0.426-0.164,0.837-0.391,1.325-0.57c0.164,0.426,0.328,0.851,0.493,1.277c1.117,0.537,2.171,1.089,3.114,1.733  c0.44-0.101,0.895-0.14,1.335-0.241c-0.131,0.295-0.184,0.638-0.315,0.933c0.725,0.561,1.387,1.137,1.987,1.727  c0.266,0.005,0.532,0.01,0.798,0.015c-0.174,0.106-0.348,0.213-0.46,0.305c1.107,1.069,1.963,2.196,2.678,3.29  c-0.149-1.224-0.42-2.684-0.816-4.116c-0.189,0.043-0.392,0.024-0.58,0.067c0.145-0.232,0.242-0.387,0.387-0.619  c-0.295-0.992-0.652-1.969-1.072-2.931c-0.44,0.101-0.929,0.28-1.369,0.382c0.305-0.401,0.673-0.817,0.977-1.218  c-0.754-1.548-1.759-3.038-2.958-4.218c-0.474,0.242-0.963,0.42-1.437,0.662c0.073-0.546,0.146-1.093,0.281-1.654  c-0.865-0.595-1.842-1.099-2.901-1.384C43.689,26.176,42.219,26.117,40.667,26.276z M49.451,33.654l2.736,3.541l-3.273-3.285  l-6.164-3.48l-5.097-0.283l-3.941-0.151l3.714-0.26l5.566,0.307L49.451,33.654z"></path><path d="M22.444,39.147c0.948,0.378,2.036-0.072,2.259-1.116c0.252-0.919-0.386-1.964-1.256-2.293  c-0.948-0.378-2.036,0.072-2.259,1.116C20.95,37.836,21.574,38.818,22.444,39.147z"></path></svg>
