<svg xmlns="http://www.w3.org/2000/svg" xmlns:xlink="http://www.w3.org/1999/xlink" version="1.1" x="0px" y="0px" viewBox="0 0 100.0 100"><path d="M131,1118 c58,0,118,43,118,123 c0,94,-85,176,-147,209 c57,-129,-79,-106,-79,-221 c0,-73,54,-111,108,-111 Z M383,823 c122,81,243,83,365,4 c42,-31,109,-2,110,25 c-1,32,-71,38,-107,42 c-27,3,-31,27,-15,46 c53,61,82,116,69,131 c-18,15,-83,-21,-154,-91 c-12,-12,-42,-4,-43,22 c-3,96,-21,164,-44,164 c-24,0,-41,-68,-44,-165 c-1,-25,-30,-34,-42,-23 c-72,68,-137,104,-153,90 c-15,-17,19,-76,77,-140 c14,-15,13,-36,-10,-39 c-33,-5,-116,-5,-118,-41 c1,-27,69,-57,109,-25 Z M1195,160 l-175,172 c-26,26,-26,26,-52,0 l-109,-111 c-13,242,-162,249,-314,249 c-67,0,-148,58,-185,122 c-11,19,-40,28,-72,28 c-50,85,-76,202,-77,336 l14,0 c46,0,47,0,47,42 l0,35 c0,41,0,41,-47,41 l-180,0 c-45,0,-45,0,-45,-41 l0,-35 c0,-42,0,-42,45,-42 l16,0 c1,-216,53,-364,108,-478 c6,-130,33,-240,122,-311 l0,-167 l801,0 l103,107 c26,27,26,27,0,53 Z M422,788 c-11,-7,-15,-17,-15,-30 c3,-139,69,-233,159,-233 c89,0,158,97,158,238 c0,13,-4,23,-15,30 c-82,54,-205,52,-287,-5 Z M422,788 " fill="#ddd" stroke="none" stroke-dasharray="none" stroke-linecap="inherit" stroke-linejoin="inherit" stroke-width="1" transform="matrix(0.05,0.0,0.0,-0.05,20.0,80.0)"></path></svg>
