<svg xmlns="http://www.w3.org/2000/svg" xmlns:xlink="http://www.w3.org/1999/xlink" viewBox="0 0 75 75" version="1.1" x="0px" y="0px"><g><path style="" d="M 62.078125 44.167969 C 54 26.671875 59.210938 21.0625 59.265625 21.007812 C 59.351562 20.914062 59.367188 20.769531 59.296875 20.660156 C 59.21875 20.554688 59.082031 20.507812 58.960938 20.558594 C 58.84375 20.605469 47.605469 25.289062 49.019531 35.671875 C 45.933594 32.898438 31.535156 18.679688 40.34375 1.960938 C 40.398438 1.859375 40.382812 1.726562 40.304688 1.644531 C 40.222656 1.554688 40.09375 1.53125 39.992188 1.578125 C 39.804688 1.65625 35.3125 3.574219 31.730469 8.429688 C 28.425781 12.898438 25.351562 20.800781 29.492188 33.035156 C 30.996094 38.789062 28.15625 43.453125 26.636719 45.433594 C 27.007812 44.070312 27.480469 41.757812 27.402344 39.101562 C 27.28125 35.210938 25.878906 29.84375 19.890625 26.375 C 19.796875 26.320312 19.675781 26.324219 19.589844 26.390625 C 19.5 26.460938 19.460938 26.570312 19.484375 26.679688 C 19.507812 26.78125 21.746094 37.003906 17.816406 41.734375 C 14.425781 45.8125 11.101562 52.914062 12.898438 59.492188 C 14.40625 64.992188 19.117188 69.191406 26.902344 71.96875 C 28.898438 72.582031 30.804688 73.046875 32.917969 73.441406 C 33.054688 73.472656 33.1875 73.386719 33.230469 73.253906 C 33.273438 73.117188 33.203125 72.96875 33.078125 72.910156 C 29.082031 71.179688 24.960938 67.570312 28.023438 60.238281 C 30.941406 53.917969 30.417969 50.65625 29.835938 49.265625 C 31.34375 50.117188 34.339844 52.320312 33.589844 56.195312 C 33.570312 56.308594 33.621094 56.425781 33.722656 56.484375 C 33.824219 56.542969 33.945312 56.535156 34.039062 56.460938 C 34.132812 56.390625 43.136719 48.976562 39.046875 39.898438 C 41.0625 41.0625 46.410156 45.132812 43.257812 54.472656 C 42.207031 58.484375 45.0625 61.375 45.1875 61.492188 C 45.28125 61.585938 45.425781 61.601562 45.535156 61.527344 C 45.640625 61.460938 45.6875 61.320312 45.640625 61.195312 C 45.546875 60.945312 43.410156 55.199219 48.039062 52.027344 C 47.796875 53.5 47.410156 57.148438 49.066406 59.140625 C 50.554688 60.929688 51.992188 63.867188 51.550781 66.738281 C 51.242188 68.757812 50.050781 70.460938 47.992188 71.789062 C 47.875 71.871094 47.832031 72.015625 47.890625 72.140625 C 47.953125 72.269531 48.097656 72.328125 48.234375 72.285156 C 53.3125 70.605469 59.976562 67.269531 62.882812 60.898438 C 65.023438 56.203125 64.753906 50.574219 62.078125 44.167969 Z M 62.078125 44.167969 " stroke="none" fill-rule="nonzero" fill="#ddd" fill-opacity="1"></path></g></svg>
